<svg width="115" height="22" viewBox="0 0 115 22" fill="none" xmlns="http://www.w3.org/2000/svg">
<path d="M12.1153 10.951C12.1153 11.089 12.0923 11.273 12.0923 11.457H1.97225C2.15625 13.987 4.08825 15.666 6.73325 15.666C8.20525 15.666 9.51625 15.137 10.4363 14.079L11.3563 15.137C10.2753 16.425 8.59625 17.115 6.68725 17.115C2.91525 17.115 0.33925 14.539 0.33925 10.951C0.33925 7.363 2.84625 4.81 6.25025 4.81C9.65425 4.81 12.1153 7.317 12.1153 10.951ZM6.25025 6.213C3.90425 6.213 2.17925 7.869 1.97225 10.238H10.5513C10.3443 7.869 8.61925 6.213 6.25025 6.213ZM19.3342 4.81C22.4622 4.81 24.2332 6.374 24.2332 9.502V17H22.6692V15.114C21.9332 16.356 20.5072 17.115 18.5062 17.115C15.7692 17.115 14.0902 15.689 14.0902 13.596C14.0902 11.733 15.2862 10.169 18.7592 10.169H22.6002V9.433C22.6002 7.363 21.4272 6.236 19.1732 6.236C17.6092 6.236 16.1372 6.788 15.1482 7.662L14.4122 6.443C15.6312 5.408 17.4252 4.81 19.3342 4.81ZM18.7592 15.827C20.5992 15.827 21.9562 14.953 22.6002 13.366V11.388H18.8052C16.4592 11.388 15.7002 12.308 15.7002 13.55C15.7002 14.953 16.8272 15.827 18.7592 15.827ZM31.9116 17.115C29.9106 17.115 27.9786 16.471 26.9896 15.62L27.7256 14.332C28.6916 15.091 30.3246 15.689 32.0266 15.689C34.3266 15.689 35.2696 14.907 35.2696 13.711C35.2696 10.56 27.4266 13.044 27.4266 8.26C27.4266 6.282 29.1286 4.81 32.2106 4.81C33.7746 4.81 35.4766 5.247 36.4886 5.937L35.7756 7.248C34.7176 6.512 33.4526 6.213 32.2106 6.213C30.0256 6.213 29.0596 7.064 29.0596 8.214C29.0596 11.48 36.9026 9.019 36.9026 13.665C36.9026 15.758 35.0626 17.115 31.9116 17.115ZM48.2529 4.902H49.8629L43.8139 18.449C42.8019 20.818 41.5139 21.577 39.7889 21.577C38.6619 21.577 37.5809 21.209 36.8449 20.473L37.6039 19.254C38.2019 19.852 38.9379 20.174 39.8119 20.174C40.8929 20.174 41.6289 19.668 42.3189 18.15L42.8479 16.977L37.4429 4.902H39.1449L43.6989 15.183L48.2529 4.902Z" fill="#28262C"/>
<path d="M59.4997 17.23C54.5777 17.23 50.8977 13.757 50.8977 8.95C50.8977 4.143 54.5777 0.669999 59.5227 0.669999C62.1447 0.669999 64.3987 1.613 65.8937 3.361L63.9617 5.178C62.7887 3.913 61.3397 3.292 59.6607 3.292C56.3257 3.292 53.9107 5.638 53.9107 8.95C53.9107 12.262 56.3257 14.608 59.6607 14.608C61.3397 14.608 62.7887 13.987 63.9617 12.699L65.8937 14.539C64.3987 16.287 62.1447 17.23 59.4997 17.23ZM80.4738 17L78.8638 13.274H70.8138L69.2268 17H66.1448L73.3898 0.899999H76.3338L83.6018 17H80.4738ZM71.8258 10.928H77.8748L74.8388 3.89L71.8258 10.928ZM99.4033 17H96.1833L92.8943 12.285C92.6873 12.308 92.4803 12.308 92.2733 12.308H88.6393V17H85.6493V0.899999H92.2733C96.5053 0.899999 99.1273 3.062 99.1273 6.627C99.1273 9.065 97.8853 10.859 95.7003 11.71L99.4033 17ZM96.1143 6.627C96.1143 4.603 94.7573 3.43 92.1353 3.43H88.6393V9.847H92.1353C94.7573 9.847 96.1143 8.651 96.1143 6.627ZM105.463 14.493H114.548V17H102.473V0.899999H114.226V3.407H105.463V7.593H113.237V10.054H105.463V14.493Z" fill="#26C485"/>
</svg>
